<?xml version="1.0" encoding="UTF-8" standalone="no"?>
<svg
   width="60mm"
   height="45mm"
   viewBox="0 0 193.7006 145.27536"
   version="1.2"
   id="svg89"
   sodipodi:docname="Flipper_Zero_Screen002.svg"
   inkscape:version="1.1.1 (3bf5ae0d25, 2021-09-20)"
   xmlns:inkscape="http://www.inkscape.org/namespaces/inkscape"
   xmlns:sodipodi="http://sodipodi.sourceforge.net/DTD/sodipodi-0.dtd"
   xmlns="http://www.w3.org/2000/svg"
   xmlns:svg="http://www.w3.org/2000/svg"
   xmlns:rdf="http://www.w3.org/1999/02/22-rdf-syntax-ns#"
   xmlns:cc="http://creativecommons.org/ns#"
   xmlns:dc="http://purl.org/dc/elements/1.1/">
  <sodipodi:namedview
     id="namedview91"
     pagecolor="#505050"
     bordercolor="#ffffff"
     borderopacity="1"
     inkscape:pageshadow="0"
     inkscape:pageopacity="0"
     inkscape:pagecheckerboard="1"
     inkscape:document-units="mm"
     showgrid="false"
     inkscape:zoom="1"
     inkscape:cx="249.5"
     inkscape:cy="314.5"
     inkscape:window-width="1920"
     inkscape:window-height="1017"
     inkscape:window-x="-8"
     inkscape:window-y="-8"
     inkscape:window-maximized="1"
     inkscape:current-layer="svg89"
     width="100mm" />
  <title
     id="title51">Qt SVG Document</title>
  <desc
     id="desc53">Generated with Qt</desc>
  <defs
     id="defs55" />
  <g
     fill="none"
     stroke="#000000"
     stroke-width="1"
     fill-rule="evenodd"
     stroke-linecap="square"
     stroke-linejoin="bevel"
     id="g87"
     inkscape:transform-center-x="10.318286"
     inkscape:transform-center-y="1.1261369"
     transform="matrix(0.21027055,0,0,0.21036342,0.20567248,-1.4253142)">
    <g
       fill="#000000"
       fill-opacity="1"
       stroke="none"
       font-family="'MS Shell Dlg 2'"
       font-size="9.39583px"
       font-weight="400"
       font-style="normal"
       id="g59" />
    <g
       fill="none"
       stroke="#000000"
       stroke-opacity="1"
       stroke-width="1"
       stroke-linecap="square"
       stroke-linejoin="bevel"
       font-family="'MS Shell Dlg 2'"
       font-size="9.39583px"
       font-weight="400"
       font-style="normal"
       id="g61" />
    <g
       fill="#000000"
       fill-opacity="1"
       stroke="#000000"
       stroke-opacity="1"
       stroke-width="1"
       stroke-linecap="butt"
       stroke-linejoin="miter"
       stroke-miterlimit="2"
       font-family="'MS Shell Dlg 2'"
       font-size="9.39583px"
       font-weight="400"
       font-style="normal"
       id="g63" />
    <g
       fill="#000000"
       fill-opacity="1"
       stroke="#000000"
       stroke-opacity="1"
       stroke-width="1"
       stroke-linecap="butt"
       stroke-linejoin="miter"
       stroke-miterlimit="2"
       font-family="'MS Shell Dlg 2'"
       font-size="9.39583px"
       font-weight="400"
       font-style="normal"
       id="g65" />
    <g
       fill="#ff00ff"
       fill-opacity="1"
       stroke="#ff00ff"
       stroke-opacity="1"
       stroke-width="1"
       stroke-linecap="square"
       stroke-linejoin="bevel"
       font-family="'MS Shell Dlg 2'"
       font-size="9.39583px"
       font-weight="400"
       font-style="normal"
       id="g83">
      <polyline
         fill="none"
         vector-effect="non-scaling-stroke"
         points="176.817,461.542 176.817,215.731 "
         id="polyline67" />
      <polyline
         fill="none"
         vector-effect="non-scaling-stroke"
         points="176.817,215.731 176.836,214.39 176.895,213.051 176.992,211.714 177.128,210.38 177.303,209.051 177.517,207.728 177.769,206.411 178.059,205.102 178.387,203.802 178.753,202.512 179.156,201.234 179.596,199.967 180.073,198.714 180.586,197.476 181.135,196.253 181.719,195.046 182.338,193.857 182.991,192.686 183.679,191.535 184.399,190.404 185.152,189.295 185.937,188.208 186.753,187.145 187.599,186.105 188.476,185.091 189.382,184.102 190.316,183.141 191.278,182.207 192.266,181.301 193.28,180.424 194.32,179.578 195.383,178.761 196.47,177.977 197.579,177.224 198.71,176.503 199.861,175.816 201.032,175.163 202.221,174.544 203.428,173.96 204.651,173.411 205.89,172.898 207.143,172.421 208.409,171.981 209.687,171.578 210.977,171.212 212.277,170.884 213.586,170.594 214.903,170.342 216.226,170.128 217.555,169.953 218.889,169.817 220.226,169.719 221.566,169.661 222.906,169.641 "
         id="polyline69" />
      <polyline
         fill="none"
         vector-effect="non-scaling-stroke"
         points="222.906,169.641 699.165,169.641 "
         id="polyline71" />
      <polyline
         fill="none"
         vector-effect="non-scaling-stroke"
         points="699.165,169.641 700.506,169.661 701.845,169.719 703.182,169.817 704.516,169.953 705.845,170.128 707.168,170.342 708.485,170.594 709.794,170.884 711.094,171.212 712.384,171.578 713.662,171.981 714.929,172.421 716.182,172.898 717.42,173.411 718.643,173.96 719.85,174.544 721.039,175.163 722.21,175.816 723.361,176.503 724.492,177.224 725.601,177.977 726.688,178.761 727.751,179.578 728.791,180.424 729.805,181.301 730.794,182.207 731.755,183.141 732.689,184.102 733.595,185.091 734.472,186.105 735.318,187.145 736.135,188.208 736.919,189.295 737.672,190.404 738.393,191.535 739.08,192.686 739.733,193.857 740.352,195.046 740.936,196.253 741.485,197.476 741.998,198.714 742.475,199.967 742.915,201.234 743.318,202.512 743.684,203.802 744.012,205.102 744.302,206.411 744.554,207.728 744.768,209.051 744.943,210.38 745.079,211.714 745.177,213.051 745.235,214.39 745.255,215.731 "
         id="polyline73" />
      <polyline
         fill="none"
         vector-effect="non-scaling-stroke"
         points="745.255,215.731 745.255,461.542 "
         id="polyline75" />
      <polyline
         fill="none"
         vector-effect="non-scaling-stroke"
         points="745.255,461.542 745.235,462.883 745.177,464.222 745.079,465.559 744.943,466.893 744.768,468.222 744.554,469.545 744.302,470.862 744.012,472.171 743.684,473.471 743.318,474.761 742.915,476.039 742.475,477.306 741.998,478.559 741.485,479.797 740.936,481.02 740.352,482.227 739.733,483.416 739.08,484.587 738.393,485.738 737.672,486.869 736.919,487.978 736.135,489.065 735.318,490.128 734.472,491.168 733.595,492.182 732.689,493.171 731.755,494.132 730.794,495.066 729.805,495.972 728.791,496.849 727.751,497.695 726.688,498.512 725.601,499.296 724.492,500.049 723.361,500.77 722.21,501.457 721.039,502.11 719.85,502.729 718.643,503.313 717.42,503.862 716.182,504.375 714.929,504.852 713.662,505.292 712.384,505.695 711.094,506.061 709.794,506.389 708.485,506.679 707.168,506.931 705.845,507.145 704.516,507.32 703.182,507.456 701.845,507.554 700.506,507.612 699.165,507.632 "
         id="polyline77" />
      <polyline
         fill="none"
         vector-effect="non-scaling-stroke"
         points="699.165,507.632 222.906,507.632 "
         id="polyline79" />
      <polyline
         fill="none"
         vector-effect="non-scaling-stroke"
         points="222.906,507.632 221.566,507.612 220.226,507.554 218.889,507.456 217.555,507.32 216.226,507.145 214.903,506.931 213.586,506.679 212.277,506.389 210.977,506.061 209.687,505.695 208.409,505.292 207.143,504.852 205.89,504.375 204.651,503.862 203.428,503.313 202.221,502.729 201.032,502.11 199.861,501.457 198.71,500.77 197.579,500.049 196.47,499.296 195.383,498.512 194.32,497.695 193.28,496.849 192.266,495.972 191.278,495.066 190.316,494.132 189.382,493.171 188.476,492.182 187.599,491.168 186.753,490.128 185.937,489.065 185.152,487.978 184.399,486.869 183.679,485.738 182.991,484.587 182.338,483.416 181.719,482.227 181.135,481.02 180.586,479.797 180.073,478.559 179.596,477.306 179.156,476.039 178.753,474.761 178.387,473.471 178.059,472.171 177.769,470.862 177.517,469.545 177.303,468.222 177.128,466.893 176.992,465.559 176.895,464.222 176.836,462.883 176.817,461.542 "
         id="polyline81" />
    </g>
    <g
       fill="none"
       stroke="#000000"
       stroke-opacity="1"
       stroke-width="1"
       stroke-linecap="square"
       stroke-linejoin="bevel"
       font-family="'MS Shell Dlg 2'"
       font-size="9.39583px"
       font-weight="400"
       font-style="normal"
       id="g85" />
  </g>
  <metadata
     id="metadata1305">
    <rdf:RDF>
      <cc:Work
         rdf:about="">
        <dc:title>Qt SVG Document</dc:title>
      </cc:Work>
    </rdf:RDF>
  </metadata>
</svg>
